<?xml version="1.0" standalone="no"?>
<!DOCTYPE svg PUBLIC "-//W3C//DTD SVG 20010904//EN"
 "http://www.w3.org/TR/2001/REC-SVG-20010904/DTD/svg10.dtd">
<svg version="1.0" xmlns="http://www.w3.org/2000/svg"
 width="1077.000000pt" height="1280.000000pt" viewBox="0 0 1077.000000 1280.000000"
 preserveAspectRatio="xMidYMid meet">
<g transform="translate(0.000000,1280.000000) scale(0.100000,-0.100000)"
fill="#000000" stroke="none">
<path d="M5343 12784 c-77 -28 -113 -85 -113 -180 0 -23 -9 -86 -20 -140 -12
-55 -48 -290 -81 -524 -33 -234 -75 -501 -94 -595 -19 -93 -41 -222 -50 -285
-9 -63 -58 -392 -110 -730 -121 -792 -160 -1093 -151 -1144 10 -54 59 -100
127 -120 31 -10 140 -23 255 -31 110 -8 212 -18 226 -24 16 -6 50 -46 90 -103
71 -105 162 -202 227 -242 54 -35 144 -66 186 -66 18 0 37 -6 43 -13 13 -15
-1 -413 -18 -509 -33 -188 -109 -312 -247 -404 -133 -88 -280 -125 -658 -164
-60 -6 -150 -21 -198 -32 -99 -22 -144 -19 -174 15 -43 47 -46 63 -44 260 1
150 -2 201 -15 248 -14 48 -16 88 -12 207 7 176 -3 259 -39 330 l-27 53 52 45
c81 71 99 164 56 286 -12 35 -11 39 17 75 34 42 33 71 -4 112 -42 45 -177 93
-177 62 0 -5 11 -23 25 -39 28 -33 33 -84 13 -127 -22 -48 -78 -27 -101 37
-19 53 -30 233 -16 259 14 27 33 24 106 -16 l63 -36 0 34 c0 67 -43 174 -160
402 -127 247 -159 332 -186 510 -20 127 -21 132 -36 117 -7 -7 -21 -12 -32
-12 -28 0 -98 78 -131 144 -25 52 -27 59 -12 73 35 35 105 -16 158 -116 l30
-56 -6 40 c-3 22 -10 193 -14 380 -8 319 -8 344 10 400 25 79 24 196 -1 320
-37 180 -41 221 -29 288 24 131 24 124 -13 161 -39 39 -87 51 -247 61 l-104 7
8 -165 c9 -214 5 -242 -44 -267 -21 -10 -52 -35 -69 -55 -50 -56 -47 -105 18
-280 26 -71 51 -144 54 -161 7 -29 -11 -265 -35 -484 -46 -412 -132 -702 -280
-936 -60 -94 -195 -380 -230 -485 -36 -110 -42 -192 -58 -724 -16 -521 -28
-671 -72 -855 -18 -75 -25 -90 -60 -122 -82 -75 -196 -98 -501 -98 -115 0
-204 -5 -255 -15 -43 -8 -143 -22 -223 -30 -80 -8 -168 -19 -195 -24 -121 -23
-218 -79 -264 -154 -10 -17 -56 -160 -101 -317 -160 -559 -321 -1017 -497
-1415 -22 -49 -44 -106 -48 -125 -30 -145 -140 -420 -271 -681 -37 -74 -121
-253 -188 -399 -133 -289 -215 -438 -314 -560 l-64 -80 148 -155 c81 -86 162
-166 178 -179 55 -42 136 -77 189 -82 103 -10 97 -3 90 -97 -3 -49 -1 -99 6
-124 26 -94 128 -199 254 -260 67 -33 227 -64 419 -82 181 -17 319 10 427 84
74 51 163 78 234 72 100 -9 156 -45 309 -198 215 -215 329 -298 439 -324 39
-8 154 -20 257 -26 244 -13 337 -34 400 -92 34 -31 88 -28 118 7 44 50 25 110
-44 145 -47 23 -107 37 -255 56 -64 9 -143 23 -175 32 -31 8 -90 21 -130 28
-141 26 -248 91 -481 295 -214 186 -267 215 -421 226 -87 7 -187 -8 -424 -65
-218 -53 -222 -53 -376 -52 -93 1 -149 6 -181 16 -68 23 -130 82 -165 157 -28
60 -29 69 -29 203 0 124 3 148 26 215 20 56 28 104 32 190 8 152 34 281 118
596 74 279 103 411 119 551 5 48 23 147 40 218 34 148 39 245 14 270 -9 9 -20
13 -25 8 -17 -17 -61 -198 -118 -481 -33 -163 -82 -387 -110 -497 -27 -110
-66 -272 -86 -360 -36 -156 -103 -374 -143 -466 -16 -37 -29 -51 -66 -69 -100
-48 -190 8 -322 200 l-49 71 19 32 c99 171 314 617 423 881 24 60 89 207 143
325 160 353 314 731 526 1294 51 136 102 261 114 276 37 53 62 126 106 315 46
197 79 281 137 349 28 34 41 40 117 57 114 26 389 64 640 90 113 12 222 28
243 36 55 21 106 17 165 -12 165 -82 156 -249 -14 -270 -107 -13 -134 -32
-134 -94 0 -23 10 -42 35 -67 l36 -36 97 7 c68 4 158 0 297 -13 514 -51 1037
-93 1395 -111 140 -7 879 -11 2120 -12 1870 0 2132 4 2260 33 25 5 140 11 255
13 140 2 224 7 253 16 52 16 92 60 92 102 l0 30 -77 -7 c-43 -3 -222 -19 -398
-35 -176 -16 -342 -31 -370 -33 -103 -8 -2927 12 -3286 23 -427 13 -537 21
-596 44 -23 9 -100 23 -170 31 -146 18 -180 35 -121 59 96 40 515 67 1523 96
204 6 433 15 510 20 77 6 192 10 255 10 185 0 379 38 404 78 13 21 -104 35
-243 29 -145 -6 -220 2 -277 29 -68 32 -125 144 -74 144 11 0 145 -9 297 -20
153 -11 395 -24 538 -30 143 -6 283 -15 310 -22 32 -7 122 -10 250 -7 366 7
466 4 540 -14 39 -9 133 -28 209 -42 183 -34 233 -55 219 -91 -15 -39 -220
-45 -467 -14 -348 43 -792 15 -804 -52 -10 -54 168 -78 600 -78 330 0 553 20
799 71 88 19 110 19 310 10 275 -14 396 -33 527 -86 48 -20 47 -17 62 -165 15
-144 44 -338 85 -575 19 -110 46 -290 60 -400 111 -876 216 -1449 310 -1699
68 -180 94 -361 60 -425 -16 -32 -33 -41 -76 -41 -36 0 -50 21 -82 130 -64
215 -96 378 -162 829 -45 306 -61 404 -89 536 -8 39 -24 162 -35 276 -21 209
-47 338 -77 384 -9 14 -19 25 -22 25 -11 0 8 -435 27 -595 52 -443 91 -755
100 -800 16 -84 30 -198 61 -496 34 -330 62 -539 90 -657 26 -110 26 -115 -15
-151 -52 -45 -149 -91 -320 -151 -192 -67 -255 -96 -334 -154 -35 -26 -67 -44
-71 -39 -19 20 -38 200 -65 623 -14 209 -39 427 -50 438 -20 20 -18 -292 5
-915 14 -356 25 -316 -123 -460 -118 -116 -177 -146 -282 -145 -112 1 -186 31
-477 189 -85 47 -145 73 -160 71 -62 -9 -2 -126 100 -193 37 -25 92 -65 122
-90 30 -25 87 -61 125 -80 205 -101 400 -84 559 48 40 33 60 42 110 49 112 15
128 34 233 268 41 90 76 128 158 168 38 18 95 47 125 63 30 15 120 47 200 70
80 23 165 52 190 64 119 60 155 143 124 286 -28 132 -5 174 167 305 104 78
128 105 155 173 21 53 20 57 -82 266 -44 89 -97 223 -133 331 -135 405 -179
645 -241 1324 -16 184 -34 373 -40 420 -5 47 -16 144 -25 215 -8 72 -19 209
-25 305 -15 279 -57 447 -128 516 -82 80 -186 109 -462 129 -113 9 -212 18
-220 20 -8 3 -94 16 -190 30 -96 13 -265 40 -375 60 -110 19 -269 40 -354 47
-177 14 -160 3 -218 144 -47 115 -55 202 -24 262 12 23 32 49 44 57 13 8 38
35 55 59 45 62 116 105 282 171 224 88 284 135 333 262 58 152 66 219 68 611
2 398 21 356 -190 447 -178 78 -371 104 -620 86 -420 -31 -440 -35 -506 -93
-82 -73 -119 -180 -155 -463 -11 -82 -25 -188 -32 -233 -38 -260 93 -506 329
-620 123 -59 195 -156 224 -301 23 -120 -6 -279 -67 -358 -26 -34 -29 -35 -78
-30 -460 54 -775 77 -1196 87 -338 8 -411 16 -517 51 -64 21 -163 184 -206
338 -19 68 -21 104 -21 341 l-1 265 27 52 c16 29 42 68 59 87 75 86 309 195
489 227 39 6 197 12 395 13 l330 1 50 25 c28 14 60 40 73 59 47 72 54 119 62
421 l7 285 68 235 c186 651 230 882 275 1460 29 373 31 383 107 608 60 179 67
206 71 298 5 118 -10 164 -65 196 -40 24 -41 37 -8 124 30 79 32 120 8 132
-30 16 -254 23 -1033 33 -925 12 -1159 21 -1305 49 -152 29 -202 32 -252 14z
m552 -184 c99 -6 232 -17 295 -25 321 -40 563 -42 995 -9 333 26 493 8 561
-60 45 -45 52 -91 25 -171 -39 -120 -113 -624 -331 -2260 -99 -744 -147 -1057
-162 -1066 -7 -5 -137 -10 -288 -11 -432 -4 -379 -11 -519 61 -147 75 -165 76
-320 27 -142 -45 -227 -60 -301 -53 -72 6 -114 28 -145 76 -46 68 -85 74 -240
36 -116 -29 -152 -31 -202 -10 -24 10 -71 15 -148 15 -156 0 -221 26 -261 102
-18 35 -18 121 1 184 21 71 76 424 145 934 149 1093 223 1548 326 1977 32 133
56 168 147 212 102 51 160 56 422 41z m-1993 -797 c22 -20 23 -45 3 -83 -17
-32 -49 -40 -59 -14 -16 41 1 114 26 114 6 0 20 -7 30 -17z m43 -323 c46 -43
29 -87 -48 -126 -92 -47 -207 -30 -207 31 0 30 54 93 95 112 46 20 130 12 160
-17z m55 -187 c0 -16 -7 -63 -15 -106 -8 -43 -15 -105 -15 -137 0 -136 -76
-203 -148 -130 -61 61 -86 211 -47 277 21 35 68 63 107 63 14 0 37 13 53 30
37 39 65 40 65 3z m-202 -550 c28 -71 35 -128 29 -257 -10 -215 -46 -366 -83
-352 -9 3 -17 6 -20 6 -9 0 -33 60 -39 100 -9 60 10 228 41 369 38 169 50 191
72 134z m3819 -305 c26 -24 30 -60 9 -77 -28 -23 -66 19 -66 74 0 32 25 33 57
3z m-3507 -543 c23 -28 -38 -93 -74 -79 -45 17 -18 94 33 94 16 0 34 -7 41
-15z m-436 -100 c26 -26 40 -95 40 -195 -1 -114 -13 -143 -83 -194 -85 -63
-141 -58 -162 14 -15 49 2 142 38 214 25 49 129 176 144 176 4 0 15 -7 23 -15z
m4837 -429 c85 -18 137 -45 178 -92 29 -32 31 -38 18 -52 -10 -9 -49 -18 -109
-23 -51 -5 -126 -13 -166 -19 -113 -15 -300 -13 -361 6 -60 17 -128 73 -119
96 4 8 44 27 90 42 162 53 342 69 469 42z m-4646 -29 c54 -26 95 -85 95 -136
0 -34 -39 -86 -71 -94 -31 -8 -76 40 -84 89 -4 21 -18 50 -30 64 -65 71 -3
123 90 77z m-470 -8 c14 -15 19 -34 18 -74 -1 -55 -24 -112 -78 -200 -33 -54
-33 -104 1 -139 44 -43 94 -54 417 -86 132 -13 152 -20 162 -57 9 -34 19
-1225 11 -1258 -11 -44 -36 -49 -272 -51 -228 -3 -335 -12 -461 -41 -40 -9
-76 -14 -80 -10 -7 8 13 696 28 897 11 161 33 295 65 406 l23 81 -25 48 c-46
92 -28 192 68 374 45 87 78 131 98 131 4 0 15 -9 25 -21z m227 -90 c15 -11 28
-27 28 -35 0 -17 -36 -54 -53 -54 -22 0 -54 28 -67 60 -25 60 25 76 92 29z
m487 -35 c22 -49 8 -124 -23 -124 -17 0 -23 16 -32 80 -10 75 27 105 55 44z
m3768 -96 c21 -20 48 -34 80 -40 26 -5 256 -12 511 -15 386 -4 464 -7 469 -19
8 -22 -26 -338 -48 -439 -23 -110 -77 -224 -132 -276 -48 -47 -157 -101 -247
-123 -113 -27 -321 -40 -408 -26 -195 31 -343 127 -418 271 -27 52 -29 61 -32
214 -6 249 19 426 66 478 39 44 97 35 159 -25z m-1613 -217 c17 -27 -119 -84
-257 -106 -50 -8 -134 -15 -184 -15 -80 0 -96 3 -113 20 -27 27 -13 54 38 76
29 12 59 14 147 9 75 -4 135 -1 190 8 94 17 172 20 179 8z m-1975 -285 c23
-46 25 -64 30 -250 3 -111 10 -207 14 -214 5 -7 0 -25 -12 -46 -29 -46 -49
-134 -59 -259 -5 -59 -12 -110 -16 -114 -14 -14 -14 -13 -70 259 -24 115 -21
250 5 303 25 49 20 88 -11 105 -24 13 -56 5 -64 -15 -3 -8 0 -28 6 -45 5 -17
7 -34 4 -37 -11 -11 -74 25 -92 52 -25 38 -7 69 92 163 47 45 91 96 100 117
20 49 43 43 73 -19z m3962 -605 c16 -16 29 -34 29 -39 0 -17 -71 -82 -89 -82
-31 0 -44 26 -38 72 5 40 34 78 59 78 5 0 23 -13 39 -29z m-2436 -381 c43 -27
48 -43 22 -68 -53 -48 -105 -52 -128 -11 -21 39 11 99 53 99 11 0 35 -9 53
-20z m-820 -270 c37 -18 52 -32 66 -65 21 -48 14 -91 -27 -161 -32 -56 -79
-77 -181 -82 -136 -6 -257 41 -307 119 -28 44 -26 112 4 144 72 77 327 102
445 45z m781 20 c66 -14 144 -62 144 -90 0 -54 -68 -104 -157 -116 -93 -12
-282 41 -390 109 -55 35 -113 86 -113 101 0 14 442 11 516 -4z m411 -25 c28
-19 48 -78 34 -103 -6 -12 -38 -26 -93 -41 l-83 -22 -27 31 c-48 53 -37 112
26 141 45 21 105 19 143 -6z m-2504 -73 c9 -10 23 -35 32 -56 15 -36 15 -40
-9 -92 -42 -92 -81 -65 -81 56 0 98 22 132 58 92z m-213 -2 c28 -15 60 -73 60
-109 0 -46 -35 -77 -105 -91 -69 -14 -129 -8 -156 16 -49 44 1 145 91 186 23
10 89 9 110 -2z m1798 -76 c29 -19 28 -30 -7 -64 -32 -33 -62 -31 -86 3 -47
67 18 109 93 61z"/>
<path d="M6160 12305 c-36 -7 -101 -26 -145 -43 -44 -16 -100 -35 -124 -42
-80 -22 -211 -181 -211 -257 0 -18 6 -23 26 -23 18 0 49 22 107 78 88 84 151
120 257 149 54 15 104 18 285 17 213 0 222 -1 288 -27 168 -66 308 -157 372
-245 100 -136 83 -311 -46 -478 -117 -152 -346 -256 -594 -270 -123 -7 -349
24 -458 62 -264 95 -382 265 -317 461 19 59 21 74 11 111 -7 24 -18 42 -26 42
-34 0 -106 -145 -120 -241 -8 -57 9 -178 35 -235 29 -67 100 -131 193 -174 47
-22 174 -63 297 -96 213 -58 216 -59 350 -58 164 0 277 27 434 103 370 178
539 476 410 721 -112 214 -345 379 -624 441 -101 22 -299 24 -400 4z"/>
<path d="M6792 11804 c-25 -18 -29 -39 -7 -48 24 -9 45 4 45 29 0 32 -12 37
-38 19z"/>
<path d="M6186 11521 c-20 -22 -14 -56 10 -65 25 -10 34 2 34 45 0 44 -16 51
-44 20z"/>
<path d="M5580 10772 c-96 -28 -200 -155 -200 -243 0 -35 149 -119 298 -169
131 -44 254 -60 448 -60 93 1 212 -4 264 -11 52 -7 147 -12 210 -13 102 -1
121 2 163 22 26 13 47 28 47 32 0 5 -15 18 -34 29 -74 46 -48 84 87 131 99 34
117 45 117 67 0 33 -80 51 -320 72 -287 26 -375 40 -556 92 -78 22 -176 46
-219 54 -98 19 -235 18 -305 -3z m455 -145 c274 -57 463 -122 505 -172 26 -32
-6 -37 -200 -31 -245 6 -644 62 -717 99 -123 64 -46 161 122 153 39 -2 169
-24 290 -49z"/>
<path d="M5523 10266 c-58 -26 -71 -90 -27 -125 24 -19 40 -21 165 -21 76 0
149 4 164 10 40 15 43 39 8 70 -68 61 -240 98 -310 66z"/>
<path d="M6296 10149 c-45 -53 -27 -80 50 -82 74 -1 100 44 56 96 -25 28 -76
22 -106 -14z"/>
<path d="M5736 9918 c-21 -30 -20 -51 3 -79 l19 -24 12 29 c13 36 10 88 -7 93
-6 2 -18 -6 -27 -19z"/>
<path d="M6152 9837 c-27 -29 -27 -39 -3 -61 26 -24 53 -17 69 17 28 59 -21
92 -66 44z"/>
<path d="M5001 6906 c-24 -25 -21 -46 5 -46 17 0 38 50 26 62 -4 4 -19 -3 -31
-16z"/>
<path d="M8360 6056 c-16 -42 -12 -139 11 -276 11 -69 22 -168 24 -221 4 -142
17 -169 48 -103 50 105 36 325 -34 544 -27 81 -35 91 -49 56z"/>
<path d="M8390 3753 c0 -263 21 -905 31 -932 24 -61 59 44 59 174 0 86 6 105
31 105 34 0 84 -127 99 -254 13 -117 39 -223 61 -249 29 -35 37 -7 23 81 -16
102 -30 264 -54 632 -26 393 -50 600 -71 600 -19 0 -31 -84 -36 -235 -2 -88
-6 -171 -9 -185 -10 -44 -23 0 -34 111 -21 212 -30 264 -49 289 -10 14 -26 26
-35 28 -14 3 -16 -14 -16 -165z"/>
<path d="M5295 2585 c-33 -7 -108 -28 -165 -45 -58 -17 -134 -35 -169 -40 -75
-11 -331 2 -501 25 -253 34 -427 29 -525 -14 l-42 -18 -6 -69 c-11 -115 -39
-158 -222 -339 -152 -151 -164 -165 -207 -255 -26 -52 -83 -203 -127 -335
-136 -404 -218 -541 -400 -662 -173 -116 -227 -107 -291 47 -57 135 -104 154
-190 74 -71 -67 -94 -120 -94 -224 -1 -73 3 -93 27 -141 59 -122 174 -189 298
-175 l58 7 17 -33 c25 -49 55 -78 81 -78 14 0 73 25 131 56 l107 56 75 -6 c41
-3 136 -13 210 -21 261 -28 542 -38 731 -26 197 12 408 35 519 57 168 32 204
17 212 -90 12 -142 101 -251 239 -290 38 -11 145 -19 364 -26 171 -6 342 -14
380 -16 85 -6 212 24 262 62 39 29 41 39 11 48 -13 4 -48 14 -78 22 -42 12
-131 18 -375 24 -186 4 -331 11 -346 18 -23 9 -27 18 -32 69 -3 32 -29 139
-57 238 -92 321 -99 401 -51 587 33 127 56 258 71 398 14 134 41 572 42 688 1
104 6 125 40 143 30 16 281 22 343 8 125 -28 231 -103 309 -216 71 -104 92
-179 121 -425 69 -575 143 -830 322 -1095 87 -130 163 -189 288 -224 70 -20
375 -17 524 4 63 9 118 14 123 11 6 -4 -7 -23 -27 -44 -52 -53 -37 -60 137
-71 79 -4 207 -13 285 -19 156 -12 277 -3 366 28 118 41 42 63 -238 68 -115 3
-221 7 -234 10 -39 8 -11 23 75 38 43 8 95 20 114 27 37 14 123 16 355 8 135
-4 142 -3 184 21 44 25 71 54 59 65 -3 3 -60 10 -127 16 -95 8 -174 7 -364 -6
-133 -8 -294 -18 -359 -22 l-116 -6 -25 27 c-17 18 -32 57 -47 118 -16 64 -31
100 -51 122 l-28 31 -16 -40 c-38 -90 -69 -95 -200 -30 -51 25 -116 49 -145
55 -131 25 -208 113 -244 280 -17 80 -46 401 -46 510 0 190 -118 402 -301 540
-60 45 -88 60 -113 60 -52 0 -155 58 -224 126 -53 51 -63 66 -60 90 3 25 8 29
39 32 29 2 72 -15 215 -87 509 -256 894 -324 1263 -225 52 14 161 57 243 95
212 99 285 122 374 117 59 -3 78 -8 113 -32 23 -16 54 -49 68 -73 15 -26 32
-43 41 -41 20 4 52 66 52 103 0 100 -158 195 -324 195 -85 0 -123 -11 -186
-55 -103 -70 -351 -150 -562 -181 -149 -22 -389 -15 -533 16 -132 28 -286 87
-404 155 -226 128 -386 173 -691 196 -245 18 -283 18 -345 4z m-527 -339 c75
-39 106 -113 96 -231 -6 -77 -5 -84 35 -189 51 -136 52 -157 6 -203 -28 -28
-39 -50 -50 -102 -21 -102 -35 -286 -36 -491 0 -102 -6 -250 -12 -330 l-12
-145 -430 0 c-513 0 -1157 14 -1176 26 -10 6 25 47 127 151 135 137 235 260
290 354 14 24 49 101 78 172 109 267 222 453 370 609 141 150 384 321 529 373
62 23 148 25 185 6z m1759 -487 c16 -31 16 -177 0 -209 -42 -82 -109 34 -86
148 11 54 40 97 62 89 7 -2 18 -14 24 -28z m-3125 -731 c18 -52 -83 -170 -226
-265 -79 -54 -126 -67 -126 -36 0 26 73 115 160 194 115 105 181 141 192 107z
m-721 -358 c33 -33 31 -43 -9 -64 -53 -27 -89 -29 -112 -6 -19 19 -19 22 -5
51 29 55 83 63 126 19z"/>
<path d="M3132 1501 c-11 -7 -11 -9 0 -13 18 -7 39 2 32 13 -6 11 -15 11 -32
0z"/>
</g>
</svg>
